<?xml version="1.0" standalone="no"?>
<!DOCTYPE svg PUBLIC "-//W3C//DTD SVG 20010904//EN"
 "http://www.w3.org/TR/2001/REC-SVG-20010904/DTD/svg10.dtd">
<svg version="1.0" xmlns="http://www.w3.org/2000/svg"
 width="700.000000pt" height="700.000000pt" viewBox="0 0 700.000000 700.000000"
 preserveAspectRatio="xMidYMid meet">
<metadata>
Created by potrace 1.14, written by Peter Selinger 2001-2017
</metadata>
<g transform="translate(0.000000,700.000000) scale(0.100000,-0.100000)"
fill="#000000" stroke="none">
<path d="M3180 5980 c-113 -15 -148 -22 -260 -46 -628 -139 -1194 -529 -1551
-1069 -90 -135 -209 -370 -264 -518 -39 -106 -81 -254 -74 -261 2 -3 38 6 79
19 41 13 143 44 225 70 83 25 161 50 175 55 14 5 57 18 96 30 82 24 90 31 134
120 82 164 215 339 379 498 165 160 307 259 523 361 166 79 351 140 473 156
28 4 53 9 56 11 26 15 341 23 494 11 252 -19 603 -137 820 -276 22 -14 47 -30
56 -36 255 -160 514 -450 663 -740 84 -163 165 -403 190 -565 22 -135 28 -403
14 -540 -29 -284 -156 -626 -325 -875 -77 -114 -108 -153 -190 -238 -188 -194
-354 -316 -583 -429 l-126 -63 -94 -285 c-51 -157 -99 -302 -107 -323 l-13
-39 33 7 c144 28 403 117 557 192 303 146 554 338 811 619 170 186 367 524
467 799 48 133 103 347 117 460 3 22 7 51 10 65 10 52 19 209 19 330 -1 220
-24 407 -75 615 -21 85 -77 263 -88 280 -4 6 -13 28 -20 50 -20 60 -137 290
-187 367 -24 38 -44 71 -44 73 0 10 -129 176 -205 265 -69 80 -209 218 -292
287 -12 10 -30 25 -40 33 -65 54 -329 230 -346 230 -3 0 -31 15 -64 33 -213
121 -538 221 -858 265 -77 10 -513 12 -585 2z"/>
<path d="M4320 4468 c-85 -27 -159 -51 -165 -52 -5 -1 -44 -13 -85 -26 -41
-13 -79 -25 -85 -26 -5 -1 -111 -34 -235 -74 -124 -39 -232 -73 -240 -75 -8
-2 -58 -17 -110 -33 -52 -17 -149 -47 -215 -67 -66 -20 -140 -44 -165 -52 -25
-8 -72 -23 -105 -33 -69 -21 -110 -33 -405 -125 -118 -37 -249 -78 -290 -90
-41 -13 -118 -37 -170 -53 -52 -17 -126 -40 -165 -52 -85 -27 -517 -162 -714
-224 -79 -25 -147 -49 -150 -52 -14 -14 -1 -468 14 -494 2 -3 6 -29 10 -59 9
-70 21 -102 37 -96 7 2 101 31 208 64 605 184 767 234 785 241 11 5 65 22 120
39 55 16 210 64 345 106 135 43 265 83 290 90 37 10 366 112 582 180 26 8 49
15 51 15 11 0 -8 -59 -382 -1186 -298 -899 -401 -1215 -401 -1227 0 -3 15 -8
33 -11 17 -3 43 -9 57 -12 150 -32 275 -46 458 -48 l103 -1 395 1190 c218 655
399 1199 404 1210 8 18 83 243 85 255 1 3 59 178 129 390 150 452 147 440 138
439 -4 -1 -77 -24 -162 -51z"/>
<path d="M1571 2449 c-144 -37 -237 -92 -346 -205 -124 -128 -191 -282 -199
-459 -10 -201 64 -394 204 -536 145 -147 325 -219 531 -213 316 10 570 203
670 510 32 98 33 306 1 409 -80 259 -301 457 -561 503 -89 16 -219 12 -300 -9z"/>
</g>
</svg>
