<svg xmlns="http://www.w3.org/2000/svg" version="1.0" width="2083.000000pt" height="2083.000000pt" viewBox="-3 -3 2089 2089" preserveAspectRatio="xMidYMid meet" transform="matrix(1, 0, 0, 1, 0, 0)"><g id="deeditor_bgCarrier" stroke-width="0">
  <rect id="dee_c_e" x="-3" y="-3" width="2089" height="2089" rx="38.4" fill="#ffffff" strokewidth="0"/>
</g>

<g transform="translate(0.000000,2083.000000) scale(0.100000,-0.100000)" fill="#ff6b00" stroke="none">
<path d="M0 10415 l0 -10415 10415 0 10415 0 0 10415 0 10415 -10415 0 -10415 0 0 -10415z m3748 1221 c505 -111 889 -500 989 -1003 24 -121 23 -349 0 -463 -57 -267 -164 -469 -351 -656 -110 -110 -211 -183 -339 -245 -88 -43 -274 -106 -283 -96 -3 3 17 75 45 160 l52 154 52 24 c142 66 308 207 394 334 208 310 229 697 53 1022 -170 315 -499 513 -855 513 -128 0 -207 -13 -327 -54 -222 -75 -405 -224 -524 -426 -24 -40 -45 -78 -46 -82 -4 -10 -320 -110 -326 -103 -9 8 59 189 101 269 118 228 320 427 554 545 111 56 265 102 418 125 63 9 322 -2 393 -18z m2672 -232 c107 -20 230 -59 302 -95 l57 -29 -24 -67 c-26 -78 -82 -234 -95 -269 l-9 -23 -65 29 c-202 92 -455 111 -623 48 -225 -84 -350 -359 -314 -684 28 -250 112 -389 284 -469 40 -19 101 -39 137 -45 170 -26 397 3 549 71 35 16 65 28 66 27 12 -15 116 -341 112 -351 -14 -37 -274 -118 -440 -136 -658 -74 -1070 202 -1157 774 -18 114 -16 342 4 451 76 433 388 729 826 784 98 12 284 4 390 -16z m11716 5 c78 -14 237 -65 295 -95 l46 -23 -59 -163 c-33 -90 -63 -166 -67 -171 -4 -4 -41 6 -81 23 -132 55 -183 64 -340 65 -135 0 -148 -2 -195 -25 -66 -33 -95 -77 -95 -144 0 -103 64 -156 292 -241 376 -140 500 -221 578 -376 35 -69 60 -186 60 -281 -1 -393 -296 -597 -835 -575 -206 8 -392 50 -527 118 l-57 29 35 97 c19 54 47 132 61 173 15 41 27 76 28 78 1 1 31 -11 66 -27 35 -17 105 -42 154 -57 84 -26 103 -28 276 -28 l185 -1 59 30 c71 37 95 76 95 153 0 128 -71 184 -370 292 -333 120 -472 230 -530 419 -26 81 -27 243 -4 322 70 236 266 381 563 419 79 10 285 4 367 -11z m-9341 -24 c271 -41 444 -123 597 -284 60 -62 87 -101 127 -182 62 -127 88 -225 103 -390 23 -269 -34 -531 -153 -706 -209 -306 -577 -435 -1148 -404 -178 10 -370 33 -392 47 -12 7 -12 1881 0 1889 10 6 197 32 271 38 139 11 503 6 595 -8z m5792 4 c128 -17 232 -47 333 -96 213 -103 310 -273 310 -543 0 -196 -49 -330 -159 -441 -144 -145 -397 -219 -743 -219 l-138 0 0 -325 0 -325 -220 0 -220 0 0 958 0 959 87 13 c48 7 122 16 163 20 119 11 501 11 587 -1z m1747 -4 c344 -52 543 -201 602 -451 9 -42 16 -114 16 -184 0 -70 -7 -142 -16 -184 -47 -199 -187 -339 -416 -415 -120 -39 -211 -52 -412 -58 l-198 -6 0 -323 0 -324 -220 0 -220 0 2 958 3 957 75 12 c209 35 611 44 784 18z m-8784 -975 l0 -970 -220 0 -220 0 0 970 0 970 220 0 220 0 0 -970z m3700 785 l0 -185 -435 0 -435 0 0 -185 0 -185 385 0 385 0 0 -185 0 -185 -385 0 -385 0 0 -230 0 -230 465 0 465 0 0 -185 0 -185 -690 0 -690 0 0 970 0 970 660 0 660 0 0 -185z m1530 73 c145 -310 333 -762 486 -1170 79 -212 234 -644 234 -653 0 -3 -105 -5 -234 -5 l-233 0 -73 210 -72 210 -377 0 -378 0 -70 -207 -70 -208 -227 -3 c-139 -1 -226 1 -226 7 0 13 129 377 230 646 155 415 351 891 478 1158 l61 127 209 0 209 0 53 -112z m-9062 -1219 l-291 -872 -106 6 c-58 3 -131 11 -162 17 l-57 12 204 610 c154 464 199 608 186 604 -9 -3 -278 -87 -597 -186 -319 -99 -585 -180 -591 -180 -15 0 -34 130 -34 235 l0 84 83 26 c45 14 433 135 862 269 429 134 783 245 787 245 3 1 -124 -391 -284 -870z m-936 -188 c75 -36 134 -94 170 -169 30 -60 33 -75 33 -157 0 -79 -3 -97 -29 -149 -37 -76 -96 -135 -172 -172 -52 -26 -70 -29 -149 -29 -82 0 -97 3 -157 33 -169 83 -243 271 -177 447 30 80 121 173 199 203 75 30 212 26 282 -7z" fill="#ff6b00"/>
<path d="M8398 11024 l-28 -5 0 -609 0 -608 68 -8 c93 -10 283 10 371 40 250 84 373 300 358 626 -7 139 -21 203 -68 300 -60 121 -166 202 -316 241 -77 20 -320 34 -385 23z" fill="#ff6b00"/>
<path d="M14233 11023 l-43 -4 0 -281 0 -281 143 7 c310 16 408 67 439 233 28 152 -47 269 -197 308 -61 16 -265 27 -342 18z" fill="#ff6b00"/>
<path d="M15953 11023 l-43 -4 0 -281 0 -281 143 7 c291 15 393 60 433 193 29 97 9 214 -48 272 -65 66 -143 90 -318 95 -69 2 -144 2 -167 -1z" fill="#ff6b00"/>
<path d="M12372 10573 c-73 -192 -132 -351 -132 -355 0 -8 540 -11 540 -3 0 24 -261 705 -270 705 -3 0 -65 -156 -138 -347z" fill="#ff6b00"/>
</g>
</svg>